<svg xmlns="http://www.w3.org/2000/svg" viewBox="0 0 300 200" width="300" height="200" font-family="'Times New Roman', serif"><defs><marker id="ah" markerWidth="9" markerHeight="9" refX="6.5" refY="3" orient="auto"><path d="M0,0 L7,3 L0,6 Z" fill="#1c2330"/></marker></defs><path d="M54.6,145.2 L54.6,145.2 L54.6,144.0 L54.6,142.8 L54.7,141.7 L54.7,140.5 L54.8,139.3 L54.9,138.1 L55.0,136.9 L55.1,135.7 L55.2,134.5 L55.4,133.3 L55.5,132.1 L55.7,130.9 L55.9,129.7 L56.1,128.5 L56.3,127.3 L56.5,126.2 L56.8,125.0 L57.1,123.8 L57.3,122.6 L57.6,121.4 L58.0,120.2 L58.3,119.0 L58.6,117.8 L59.0,116.6 L59.4,115.4 L59.8,114.2 L60.2,113.0 L60.6,111.8 L61.1,110.7 L61.6,109.5 L62.1,108.3 L62.6,107.1 L63.1,105.9 L63.7,104.7 L64.2,103.5 L64.8,102.3 L65.4,101.1 L66.1,99.9 L66.7,98.7 L67.4,97.5 L68.1,96.3 L68.8,95.2 L69.6,94.0 L70.3,92.8 L71.1,91.6 L72.0,90.4 L72.8,89.2 L73.7,88.0 L74.6,86.8 L75.5,85.6 L76.5,84.4 L77.5,83.2 L78.6,82.0 L79.6,80.8 L80.7,79.7 L81.9,78.5 L83.1,77.3 L84.3,76.1 L85.6,74.9 L86.9,73.7 L88.3,72.5 L89.7,71.3 L91.2,70.1 L92.8,68.9 L94.4,67.7 L96.1,66.5 L97.9,65.3 L99.8,64.2 L101.7,63.0 L103.8,61.8 L106.0,60.6 L108.4,59.4 L111.0,58.2 L113.8,57.0 L116.8,55.8 L120.2,54.6 L124.1,53.4 L128.8,52.2 L135.0,51.0 L150.0,49.8 L150.0,49.8 L152.4,52.2 L154.8,54.6 L157.2,57.0 L159.5,59.4 L161.9,61.8 L164.3,64.2 L166.7,66.5 L169.1,68.9 L171.5,71.3 L173.8,73.7 L176.2,76.1 L178.6,78.5 L181.0,80.8 L183.4,83.2 L185.8,85.6 L188.2,88.0 L190.5,90.4 L192.9,92.8 L195.3,95.2 L197.7,97.5 L200.1,99.9 L202.5,102.3 L204.8,104.7 L207.2,107.1 L209.6,109.5 L212.0,111.8 L214.4,114.2 L216.8,116.6 L219.2,119.0 L221.5,121.4 L223.9,123.8 L226.3,126.2 L228.7,128.5 L231.1,130.9 L233.5,133.3 L235.8,135.7 L238.2,138.1 L240.6,140.5 L243.0,142.8 L245.4,145.2 L54.6,145.2 Z" fill="#2f6df0" fill-opacity="0.13" stroke="none"/><line x1="26.0" y1="145.2" x2="274.0" y2="145.2" stroke="#1c2330" stroke-width="1.4" marker-end="url(#ah)"/><line x1="150.0" y1="173.8" x2="150.0" y2="26.0" stroke="#1c2330" stroke-width="1.4" marker-end="url(#ah)"/><text x="278.0" y="150.2" text-anchor="start" font-style="italic" font-size="14" fill="#1c2330">x</text><text x="144.0" y="22.0" text-anchor="end" font-style="italic" font-size="14" fill="#1c2330">y</text><text x="144.0" y="159.2" text-anchor="end" font-style="italic" font-size="14" fill="#1c2330">O</text><path d="M54.6,145.2 L54.6,144.0 L54.6,142.8 L54.7,141.7 L54.7,140.5 L54.8,139.3 L54.9,138.1 L55.0,136.9 L55.1,135.7 L55.2,134.5 L55.4,133.3 L55.5,132.1 L55.7,130.9 L55.9,129.7 L56.1,128.5 L56.3,127.3 L56.5,126.2 L56.8,125.0 L57.1,123.8 L57.3,122.6 L57.6,121.4 L58.0,120.2 L58.3,119.0 L58.6,117.8 L59.0,116.6 L59.4,115.4 L59.8,114.2 L60.2,113.0 L60.6,111.8 L61.1,110.7 L61.6,109.5 L62.1,108.3 L62.6,107.1 L63.1,105.9 L63.7,104.7 L64.2,103.5 L64.8,102.3 L65.4,101.1 L66.1,99.9 L66.7,98.7 L67.4,97.5 L68.1,96.3 L68.8,95.2 L69.6,94.0 L70.3,92.8 L71.1,91.6 L72.0,90.4 L72.8,89.2 L73.7,88.0 L74.6,86.8 L75.5,85.6 L76.5,84.4 L77.5,83.2 L78.6,82.0 L79.6,80.8 L80.7,79.7 L81.9,78.5 L83.1,77.3 L84.3,76.1 L85.6,74.9 L86.9,73.7 L88.3,72.5 L89.7,71.3 L91.2,70.1 L92.8,68.9 L94.4,67.7 L96.1,66.5 L97.9,65.3 L99.8,64.2 L101.7,63.0 L103.8,61.8 L106.0,60.6 L108.4,59.4 L111.0,58.2 L113.8,57.0 L116.8,55.8 L120.2,54.6 L124.1,53.4 L128.8,52.2 L135.0,51.0 L150.0,49.8" fill="none" stroke="#1c2330" stroke-width="2"/><line x1="245.4" y1="145.2" x2="150.0" y2="49.8" stroke="#1c2330" stroke-width="2"/><circle cx="150.0" cy="49.8" r="2.6" fill="#1c2330"/><text x="54.6" y="160.2" text-anchor="middle" font-size="11" fill="#1c2330">−1</text><text x="245.4" y="160.2" text-anchor="middle" font-size="11" fill="#1c2330">1</text><text x="192.9" y="92.8" text-anchor="start" font-size="11" fill="#1c2330">x=1−y</text><text x="75.6" y="97.5" text-anchor="middle" font-size="10" fill="#1c2330">x²+y²=1</text><text x="135.7" y="113.8" text-anchor="middle" font-size="14" fill="#1c2330">D</text></svg>
