<svg xmlns="http://www.w3.org/2000/svg" viewBox="0 0 300 295" width="300" height="295" font-family="'Times New Roman', serif"><defs><marker id="ah" markerWidth="9" markerHeight="9" refX="6.5" refY="3" orient="auto"><path d="M0,0 L7,3 L0,6 Z" fill="#1c2330"/></marker></defs><path d="M147.7,147.7 L148.0,147.4 L148.8,146.5 L149.7,145.6 L150.6,144.6 L151.5,143.7 L152.3,142.7 L153.2,141.8 L154.1,140.8 L155.0,139.7 L155.8,138.7 L156.7,137.6 L157.6,136.5 L158.5,135.4 L159.4,134.3 L160.2,133.1 L161.1,131.9 L162.0,130.7 L162.9,129.5 L163.7,128.2 L164.6,126.9 L165.5,125.6 L166.4,124.3 L167.3,122.9 L168.1,121.5 L169.0,120.0 L169.9,118.5 L170.8,117.0 L171.6,115.4 L172.5,113.8 L173.4,112.2 L174.3,110.5 L175.2,108.7 L176.0,107.0 L176.9,105.1 L177.8,103.2 L178.7,101.3 L179.5,99.3 L180.4,97.3 L181.3,95.2 L182.2,93.0 L183.0,90.8 L183.9,88.5 L184.8,86.1 L185.7,83.6 L186.6,81.1 L187.4,78.5 L188.3,75.8 L189.2,73.0 L190.1,70.1 L190.9,67.1 L191.8,64.0 L192.7,60.8 L193.6,57.5 L194.5,54.1 L194.5,54.1 L54.1,54.1 L147.7,147.7 Z" fill="#2f6df0" fill-opacity="0.13" stroke="none"/><line x1="26.0" y1="241.2" x2="274.0" y2="241.2" stroke="#1c2330" stroke-width="1.4" marker-end="url(#ah)"/><line x1="241.2" y1="269.3" x2="241.2" y2="26.0" stroke="#1c2330" stroke-width="1.4" marker-end="url(#ah)"/><text x="278.0" y="246.2" text-anchor="start" font-style="italic" font-size="14" fill="#1c2330">x</text><text x="235.2" y="22.0" text-anchor="end" font-style="italic" font-size="14" fill="#1c2330">y</text><text x="235.2" y="255.2" text-anchor="end" font-style="italic" font-size="14" fill="#1c2330">O</text><path d="M44.7,196.7 L45.7,196.5 L46.7,196.2 L47.7,196.0 L48.6,195.8 L49.6,195.5 L50.6,195.3 L51.6,195.1 L52.6,194.8 L53.6,194.6 L54.5,194.3 L55.5,194.1 L56.5,193.8 L57.5,193.6 L58.5,193.3 L59.5,193.1 L60.4,192.8 L61.4,192.5 L62.4,192.3 L63.4,192.0 L64.4,191.7 L65.4,191.5 L66.3,191.2 L67.3,190.9 L68.3,190.6 L69.3,190.3 L70.3,190.0 L71.2,189.7 L72.2,189.4 L73.2,189.1 L74.2,188.8 L75.2,188.5 L76.2,188.2 L77.1,187.9 L78.1,187.6 L79.1,187.2 L80.1,186.9 L81.1,186.6 L82.1,186.2 L83.0,185.9 L84.0,185.5 L85.0,185.2 L86.0,184.8 L87.0,184.5 L88.0,184.1 L88.9,183.7 L89.9,183.4 L90.9,183.0 L91.9,182.6 L92.9,182.2 L93.8,181.8 L94.8,181.4 L95.8,181.0 L96.8,180.6 L97.8,180.2 L98.8,179.8 L99.7,179.4 L100.7,178.9 L101.7,178.5 L102.7,178.0 L103.7,177.6 L104.7,177.1 L105.6,176.7 L106.6,176.2 L107.6,175.7 L108.6,175.2 L109.6,174.7 L110.6,174.2 L111.5,173.7 L112.5,173.2 L113.5,172.7 L114.5,172.2 L115.5,171.6 L116.4,171.1 L117.4,170.5 L118.4,169.9 L119.4,169.4 L120.4,168.8 L121.4,168.2 L122.3,167.6 L123.3,167.0 L124.3,166.3 L125.3,165.7 L126.3,165.1 L127.3,164.4 L128.2,163.7 L129.2,163.1 L130.2,162.4 L131.2,161.7 L132.2,160.9 L133.2,160.2 L134.1,159.5 L135.1,158.7 L136.1,157.9 L137.1,157.2 L138.1,156.4 L139.1,155.5 L140.0,154.7 L141.0,153.9 L142.0,153.0 L143.0,152.1 L144.0,151.2 L144.9,150.3 L145.9,149.4 L146.9,148.4 L147.9,147.4 L148.9,146.4 L149.9,145.4 L150.8,144.4 L151.8,143.3 L152.8,142.2 L153.8,141.1 L154.8,140.0 L155.8,138.8 L156.7,137.6 L157.7,136.4 L158.7,135.1 L159.7,133.9 L160.7,132.6 L161.7,131.2 L162.6,129.8 L163.6,128.4 L164.6,127.0 L165.6,125.5 L166.6,124.0 L167.5,122.4 L168.5,120.8 L169.5,119.2 L170.5,117.5 L171.5,115.7 L172.5,113.9 L173.4,112.1 L174.4,110.2 L175.4,108.2 L176.4,106.2 L177.4,104.1 L178.4,102.0 L179.3,99.8 L180.3,97.5 L181.3,95.1 L182.3,92.7 L183.3,90.2 L184.3,87.6 L185.2,84.9 L186.2,82.1 L187.2,79.2 L188.2,76.2 L189.2,73.1 L190.1,69.8 L191.1,66.5 L192.1,63.0 L193.1,59.4 L194.1,55.6 L195.1,51.6 L196.0,47.5 L197.0,43.2 L198.0,38.7 L199.0,34.0 L200.0,29.0 L201.0,23.9 L201.9,18.4" fill="none" stroke="#1c2330" stroke-width="2"/><line x1="40.0" y1="40.0" x2="241.2" y2="241.2" stroke="#1c2330" stroke-width="2"/><line x1="35.4" y1="54.1" x2="213.2" y2="54.1" stroke="#1c2330" stroke-width="2"/><circle cx="147.7" cy="147.7" r="2.6" fill="#1c2330"/><text x="119.6" y="119.6" text-anchor="end" font-size="12" fill="#1c2330">y=−x</text><text x="82.2" y="50.1" text-anchor="middle" font-size="12" fill="#1c2330">y=2</text><text x="175.7" y="110.2" text-anchor="start" font-size="11" fill="#1c2330">xy+1=0</text><text x="143.0" y="86.8" text-anchor="middle" font-size="14" fill="#1c2330">D</text></svg>
